<svg width="160" height="64" viewBox="0 0 160 64" fill="none" xmlns="http://www.w3.org/2000/svg">
  <rect width="160" height="64" rx="16" fill="#0A5BFF"/>
  <rect x="14" y="14" width="36" height="36" rx="10" fill="white" fill-opacity="0.18"/>
  <path d="M24 40V24H28.2L32 30.3L35.8 24H40V40H35.8V31.1L32.8 36H31.2L28.2 31.1V40H24Z" fill="white"/>
  <path d="M46 40V24H52.7C55.8 24 57.8 25.5 57.8 28.1C57.8 29.8 56.8 31.1 55.2 31.7C57.3 32.2 58.6 33.7 58.6 35.9C58.6 38.8 56.3 40 52.9 40H46ZM50.3 30.4H52C53.1 30.4 53.8 29.8 53.8 28.8C53.8 27.8 53.1 27.2 52 27.2H50.3V30.4ZM50.3 36.8H52.4C53.7 36.8 54.4 36.1 54.4 34.9C54.4 33.8 53.6 33 52.4 33H50.3V36.8Z" fill="white"/>
  <text x="74" y="27" fill="white" font-family="Arial, sans-serif" font-size="13" font-weight="700" letter-spacing="2">MB</text>
  <text x="74" y="44" fill="white" font-family="Arial, sans-serif" font-size="18" font-weight="800" letter-spacing="1">WAY</text>
</svg>
